<svg id="visual" viewBox="0 0 900 600" width="900" height="600" xmlns="http://www.w3.org/2000/svg" xmlns:xlink="http://www.w3.org/1999/xlink" version="1.1"><rect x="0" y="0" width="900" height="600" fill="#fefff5"></rect><path d="M0 24L7.5 26C15 28 30 32 45 31.5C60 31 75 26 90 21.3C105 16.7 120 12.3 135 11.5C150 10.7 165 13.3 180 13.7C195 14 210 12 225 14.7C240 17.3 255 24.7 270 24.7C285 24.7 300 17.3 315 20.2C330 23 345 36 360 42.7C375 49.3 390 49.7 405 43C420 36.3 435 22.7 450 16.3C465 10 480 11 495 18C510 25 525 38 540 42.3C555 46.7 570 42.3 585 42.7C600 43 615 48 630 48.3C645 48.7 660 44.3 675 44.7C690 45 705 50 720 51.2C735 52.3 750 49.7 765 45.3C780 41 795 35 810 32.8C825 30.7 840 32.3 855 30.2C870 28 885 22 892.5 19L900 16L900 0L892.5 0C885 0 870 0 855 0C840 0 825 0 810 0C795 0 780 0 765 0C750 0 735 0 720 0C705 0 690 0 675 0C660 0 645 0 630 0C615 0 600 0 585 0C570 0 555 0 540 0C525 0 510 0 495 0C480 0 465 0 450 0C435 0 420 0 405 0C390 0 375 0 360 0C345 0 330 0 315 0C300 0 285 0 270 0C255 0 240 0 225 0C210 0 195 0 180 0C165 0 150 0 135 0C120 0 105 0 90 0C75 0 60 0 45 0C30 0 15 0 7.5 0L0 0Z" fill="#dddddd"></path><path d="M0 18L7.5 20.7C15 23.3 30 28.7 45 28.7C60 28.7 75 23.3 90 23.2C105 23 120 28 135 31.8C150 35.7 165 38.3 180 40.7C195 43 210 45 225 46.8C240 48.7 255 50.3 270 48.7C285 47 300 42 315 40.8C330 39.7 345 42.3 360 44.3C375 46.3 390 47.7 405 45C420 42.3 435 35.7 450 29.8C465 24 480 19 495 16.8C510 14.7 525 15.3 540 19.2C555 23 570 30 585 35.2C600 40.3 615 43.7 630 45.3C645 47 660 47 675 40.8C690 34.7 705 22.3 720 19C735 15.7 750 21.3 765 20.8C780 20.3 795 13.7 810 16C825 18.3 840 29.7 855 30.7C870 31.7 885 22.3 892.5 17.7L900 13L900 0L892.5 0C885 0 870 0 855 0C840 0 825 0 810 0C795 0 780 0 765 0C750 0 735 0 720 0C705 0 690 0 675 0C660 0 645 0 630 0C615 0 600 0 585 0C570 0 555 0 540 0C525 0 510 0 495 0C480 0 465 0 450 0C435 0 420 0 405 0C390 0 375 0 360 0C345 0 330 0 315 0C300 0 285 0 270 0C255 0 240 0 225 0C210 0 195 0 180 0C165 0 150 0 135 0C120 0 105 0 90 0C75 0 60 0 45 0C30 0 15 0 7.5 0L0 0Z" fill="#d4d4dc"></path><path d="M0 30L7.5 31.5C15 33 30 36 45 34.3C60 32.7 75 26.3 90 23.5C105 20.7 120 21.3 135 20.7C150 20 165 18 180 16.7C195 15.3 210 14.7 225 17C240 19.3 255 24.7 270 28.3C285 32 300 34 315 33.2C330 32.3 345 28.7 360 29C375 29.3 390 33.7 405 33C420 32.3 435 26.7 450 26.3C465 26 480 31 495 32.2C510 33.3 525 30.7 540 29.2C555 27.7 570 27.3 585 25.7C600 24 615 21 630 19.7C645 18.3 660 18.7 675 20C690 21.3 705 23.7 720 21.5C735 19.3 750 12.7 765 16.2C780 19.7 795 33.3 810 33.3C825 33.3 840 19.7 855 17.8C870 16 885 26 892.5 31L900 36L900 0L892.5 0C885 0 870 0 855 0C840 0 825 0 810 0C795 0 780 0 765 0C750 0 735 0 720 0C705 0 690 0 675 0C660 0 645 0 630 0C615 0 600 0 585 0C570 0 555 0 540 0C525 0 510 0 495 0C480 0 465 0 450 0C435 0 420 0 405 0C390 0 375 0 360 0C345 0 330 0 315 0C300 0 285 0 270 0C255 0 240 0 225 0C210 0 195 0 180 0C165 0 150 0 135 0C120 0 105 0 90 0C75 0 60 0 45 0C30 0 15 0 7.5 0L0 0Z" fill="#cccbda"></path><path d="M0 25L7.5 25.7C15 26.3 30 27.7 45 24.5C60 21.3 75 13.7 90 9.8C105 6 120 6 135 10.3C150 14.7 165 23.3 180 26C195 28.7 210 25.3 225 21C240 16.7 255 11.3 270 8.8C285 6.3 300 6.7 315 12.2C330 17.7 345 28.3 360 29.5C375 30.7 390 22.3 405 21.8C420 21.3 435 28.7 450 28C465 27.3 480 18.7 495 15.2C510 11.7 525 13.3 540 17.5C555 21.7 570 28.3 585 27.5C600 26.7 615 18.3 630 19.5C645 20.7 660 31.3 675 35C690 38.7 705 35.3 720 29.8C735 24.3 750 16.7 765 12.3C780 8 795 7 810 6.5C825 6 840 6 855 5.8C870 5.7 885 5.3 892.5 5.2L900 5L900 0L892.5 0C885 0 870 0 855 0C840 0 825 0 810 0C795 0 780 0 765 0C750 0 735 0 720 0C705 0 690 0 675 0C660 0 645 0 630 0C615 0 600 0 585 0C570 0 555 0 540 0C525 0 510 0 495 0C480 0 465 0 450 0C435 0 420 0 405 0C390 0 375 0 360 0C345 0 330 0 315 0C300 0 285 0 270 0C255 0 240 0 225 0C210 0 195 0 180 0C165 0 150 0 135 0C120 0 105 0 90 0C75 0 60 0 45 0C30 0 15 0 7.5 0L0 0Z" fill="#c3c1d9"></path><path d="M0 38L7.5 36.3C15 34.7 30 31.3 45 27C60 22.7 75 17.3 90 15.3C105 13.3 120 14.7 135 17.8C150 21 165 26 180 24.2C195 22.3 210 13.7 225 11.2C240 8.7 255 12.3 270 16.2C285 20 300 24 315 26.8C330 29.7 345 31.3 360 32C375 32.7 390 32.3 405 29.7C420 27 435 22 450 19C465 16 480 15 495 16.5C510 18 525 22 540 23.3C555 24.7 570 23.3 585 20.7C600 18 615 14 630 13.8C645 13.7 660 17.3 675 18.3C690 19.3 705 17.7 720 20.3C735 23 750 30 765 29.2C780 28.3 795 19.7 810 14.3C825 9 840 7 855 6.2C870 5.3 885 5.7 892.5 5.8L900 6L900 0L892.5 0C885 0 870 0 855 0C840 0 825 0 810 0C795 0 780 0 765 0C750 0 735 0 720 0C705 0 690 0 675 0C660 0 645 0 630 0C615 0 600 0 585 0C570 0 555 0 540 0C525 0 510 0 495 0C480 0 465 0 450 0C435 0 420 0 405 0C390 0 375 0 360 0C345 0 330 0 315 0C300 0 285 0 270 0C255 0 240 0 225 0C210 0 195 0 180 0C165 0 150 0 135 0C120 0 105 0 90 0C75 0 60 0 45 0C30 0 15 0 7.5 0L0 0Z" fill="#bab8d7"></path><path d="M0 34L7.5 29.2C15 24.3 30 14.7 45 10.8C60 7 75 9 90 13C105 17 120 23 135 23.5C150 24 165 19 180 18.3C195 17.7 210 21.3 225 24.2C240 27 255 29 270 29.2C285 29.3 300 27.7 315 24.3C330 21 345 16 360 16.8C375 17.7 390 24.3 405 26.3C420 28.3 435 25.7 450 23.7C465 21.7 480 20.3 495 22C510 23.7 525 28.3 540 28C555 27.7 570 22.3 585 20.8C600 19.3 615 21.7 630 20C645 18.3 660 12.7 675 11.7C690 10.7 705 14.3 720 15.8C735 17.3 750 16.7 765 17.2C780 17.7 795 19.3 810 19.7C825 20 840 19 855 20.5C870 22 885 26 892.5 28L900 30L900 0L892.5 0C885 0 870 0 855 0C840 0 825 0 810 0C795 0 780 0 765 0C750 0 735 0 720 0C705 0 690 0 675 0C660 0 645 0 630 0C615 0 600 0 585 0C570 0 555 0 540 0C525 0 510 0 495 0C480 0 465 0 450 0C435 0 420 0 405 0C390 0 375 0 360 0C345 0 330 0 315 0C300 0 285 0 270 0C255 0 240 0 225 0C210 0 195 0 180 0C165 0 150 0 135 0C120 0 105 0 90 0C75 0 60 0 45 0C30 0 15 0 7.5 0L0 0Z" fill="#b1afd6"></path><path d="M0 30L7.5 28.2C15 26.3 30 22.7 45 18.8C60 15 75 11 90 12.5C105 14 120 21 135 23.5C150 26 165 24 180 20C195 16 210 10 225 8.2C240 6.3 255 8.7 270 9.8C285 11 300 11 315 10.7C330 10.3 345 9.7 360 10C375 10.3 390 11.7 405 10.7C420 9.7 435 6.3 450 8C465 9.7 480 16.3 495 20.5C510 24.7 525 26.3 540 26.8C555 27.3 570 26.7 585 23.2C600 19.7 615 13.3 630 13.3C645 13.3 660 19.7 675 20.8C690 22 705 18 720 15.5C735 13 750 12 765 10.7C780 9.3 795 7.7 810 7.2C825 6.7 840 7.3 855 9.2C870 11 885 14 892.5 15.5L900 17L900 0L892.5 0C885 0 870 0 855 0C840 0 825 0 810 0C795 0 780 0 765 0C750 0 735 0 720 0C705 0 690 0 675 0C660 0 645 0 630 0C615 0 600 0 585 0C570 0 555 0 540 0C525 0 510 0 495 0C480 0 465 0 450 0C435 0 420 0 405 0C390 0 375 0 360 0C345 0 330 0 315 0C300 0 285 0 270 0C255 0 240 0 225 0C210 0 195 0 180 0C165 0 150 0 135 0C120 0 105 0 90 0C75 0 60 0 45 0C30 0 15 0 7.5 0L0 0Z" fill="#a9a7d4"></path><path d="M0 7L7.5 6.5C15 6 30 5 45 7.2C60 9.3 75 14.7 90 17C105 19.3 120 18.7 135 16C150 13.3 165 8.7 180 6.3C195 4 210 4 225 7.2C240 10.3 255 16.7 270 19.8C285 23 300 23 315 20.8C330 18.7 345 14.3 360 13.7C375 13 390 16 405 16C420 16 435 13 450 14C465 15 480 20 495 20.2C510 20.3 525 15.7 540 14.8C555 14 570 17 585 18C600 19 615 18 630 17.7C645 17.3 660 17.7 675 15.3C690 13 705 8 720 6.3C735 4.7 750 6.3 765 10C780 13.7 795 19.3 810 21.8C825 24.3 840 23.7 855 20.8C870 18 885 13 892.5 10.5L900 8L900 0L892.5 0C885 0 870 0 855 0C840 0 825 0 810 0C795 0 780 0 765 0C750 0 735 0 720 0C705 0 690 0 675 0C660 0 645 0 630 0C615 0 600 0 585 0C570 0 555 0 540 0C525 0 510 0 495 0C480 0 465 0 450 0C435 0 420 0 405 0C390 0 375 0 360 0C345 0 330 0 315 0C300 0 285 0 270 0C255 0 240 0 225 0C210 0 195 0 180 0C165 0 150 0 135 0C120 0 105 0 90 0C75 0 60 0 45 0C30 0 15 0 7.5 0L0 0Z" fill="#9f9ed3"></path><path d="M0 8L7.5 8.2C15 8.3 30 8.7 45 8C60 7.3 75 5.7 90 7C105 8.3 120 12.7 135 15C150 17.3 165 17.7 180 16.2C195 14.7 210 11.3 225 9.8C240 8.3 255 8.7 270 8.7C285 8.7 300 8.3 315 9.2C330 10 345 12 360 11.5C375 11 390 8 405 8.7C420 9.3 435 13.7 450 13.2C465 12.7 480 7.3 495 7.3C510 7.3 525 12.7 540 13.7C555 14.7 570 11.3 585 8.8C600 6.3 615 4.7 630 5.2C645 5.7 660 8.3 675 11.2C690 14 705 17 720 17.7C735 18.3 750 16.7 765 14.5C780 12.3 795 9.7 810 8C825 6.3 840 5.7 855 6.5C870 7.3 885 9.7 892.5 10.8L900 12L900 0L892.5 0C885 0 870 0 855 0C840 0 825 0 810 0C795 0 780 0 765 0C750 0 735 0 720 0C705 0 690 0 675 0C660 0 645 0 630 0C615 0 600 0 585 0C570 0 555 0 540 0C525 0 510 0 495 0C480 0 465 0 450 0C435 0 420 0 405 0C390 0 375 0 360 0C345 0 330 0 315 0C300 0 285 0 270 0C255 0 240 0 225 0C210 0 195 0 180 0C165 0 150 0 135 0C120 0 105 0 90 0C75 0 60 0 45 0C30 0 15 0 7.5 0L0 0Z" fill="#9695d1"></path><path d="M0 13L7.5 13C15 13 30 13 45 13.5C60 14 75 15 90 13C105 11 120 6 135 5.7C150 5.3 165 9.7 180 10.8C195 12 210 10 225 10C240 10 255 12 270 13C285 14 300 14 315 13.5C330 13 345 12 360 10.7C375 9.3 390 7.7 405 6.7C420 5.7 435 5.3 450 5.2C465 5 480 5 495 6.5C510 8 525 11 540 12.7C555 14.3 570 14.7 585 13.8C600 13 615 11 630 10.7C645 10.3 660 11.7 675 11.3C690 11 705 9 720 9.5C735 10 750 13 765 13.5C780 14 795 12 810 11.3C825 10.7 840 11.3 855 10.5C870 9.7 885 7.3 892.5 6.2L900 5L900 0L892.5 0C885 0 870 0 855 0C840 0 825 0 810 0C795 0 780 0 765 0C750 0 735 0 720 0C705 0 690 0 675 0C660 0 645 0 630 0C615 0 600 0 585 0C570 0 555 0 540 0C525 0 510 0 495 0C480 0 465 0 450 0C435 0 420 0 405 0C390 0 375 0 360 0C345 0 330 0 315 0C300 0 285 0 270 0C255 0 240 0 225 0C210 0 195 0 180 0C165 0 150 0 135 0C120 0 105 0 90 0C75 0 60 0 45 0C30 0 15 0 7.5 0L0 0Z" fill="#8d8dcf"></path><path d="M0 10L7.5 8.5C15 7 30 4 45 2.7C60 1.3 75 1.7 90 3.3C105 5 120 8 135 8.8C150 9.7 165 8.3 180 7.2C195 6 210 5 225 4.8C240 4.7 255 5.3 270 5.5C285 5.7 300 5.3 315 4.7C330 4 345 3 360 2.8C375 2.7 390 3.3 405 3.5C420 3.7 435 3.3 450 4.5C465 5.7 480 8.3 495 9.2C510 10 525 9 540 8.7C555 8.3 570 8.7 585 8C600 7.3 615 5.7 630 4.2C645 2.7 660 1.3 675 0.7C690 0 705 0 720 0.7C735 1.3 750 2.7 765 3.8C780 5 795 6 810 6C825 6 840 5 855 3.8C870 2.7 885 1.3 892.5 0.7L900 0L900 0L892.5 0C885 0 870 0 855 0C840 0 825 0 810 0C795 0 780 0 765 0C750 0 735 0 720 0C705 0 690 0 675 0C660 0 645 0 630 0C615 0 600 0 585 0C570 0 555 0 540 0C525 0 510 0 495 0C480 0 465 0 450 0C435 0 420 0 405 0C390 0 375 0 360 0C345 0 330 0 315 0C300 0 285 0 270 0C255 0 240 0 225 0C210 0 195 0 180 0C165 0 150 0 135 0C120 0 105 0 90 0C75 0 60 0 45 0C30 0 15 0 7.5 0L0 0Z" fill="#8384ce"></path><path d="M0 6L7.5 5.8C15 5.7 30 5.3 45 5.2C60 5 75 5 90 4.5C105 4 120 3 135 2.2C150 1.3 165 0.7 180 0.3C195 0 210 0 225 0.7C240 1.3 255 2.7 270 3.8C285 5 300 6 315 6.5C330 7 345 7 360 7C375 7 390 7 405 6C420 5 435 3 450 2.2C465 1.3 480 1.7 495 2.5C510 3.3 525 4.7 540 5.2C555 5.7 570 5.3 585 4.5C600 3.7 615 2.3 630 1.7C645 1 660 1 675 1.2C690 1.3 705 1.7 720 1.7C735 1.7 750 1.3 765 2.2C780 3 795 5 810 5.2C825 5.3 840 3.7 855 2.7C870 1.7 885 1.3 892.5 1.2L900 1L900 0L892.5 0C885 0 870 0 855 0C840 0 825 0 810 0C795 0 780 0 765 0C750 0 735 0 720 0C705 0 690 0 675 0C660 0 645 0 630 0C615 0 600 0 585 0C570 0 555 0 540 0C525 0 510 0 495 0C480 0 465 0 450 0C435 0 420 0 405 0C390 0 375 0 360 0C345 0 330 0 315 0C300 0 285 0 270 0C255 0 240 0 225 0C210 0 195 0 180 0C165 0 150 0 135 0C120 0 105 0 90 0C75 0 60 0 45 0C30 0 15 0 7.5 0L0 0Z" fill="#797ccc"></path></svg>