<svg id="visual" viewBox="0 0 960 540" width="960" height="540" xmlns="http://www.w3.org/2000/svg" xmlns:xlink="http://www.w3.org/1999/xlink" version="1.1"><rect x="0" y="0" width="960" height="540" fill="#f9f9f9"></rect><path d="M643 540L639.5 527.2C636 514.3 629 488.7 624 463C619 437.3 616 411.7 631.3 386C646.7 360.3 680.3 334.7 691.5 308.8C702.7 283 691.3 257 689.8 231.2C688.3 205.3 696.7 179.7 696.5 154C696.3 128.3 687.7 102.7 678.2 77C668.7 51.3 658.3 25.7 653.2 12.8L648 0L960 0L960 12.8C960 25.7 960 51.3 960 77C960 102.7 960 128.3 960 154C960 179.7 960 205.3 960 231.2C960 257 960 283 960 308.8C960 334.7 960 360.3 960 386C960 411.7 960 437.3 960 463C960 488.7 960 514.3 960 527.2L960 540Z" fill="#ffdb65"></path><path d="M746 540L733 527.2C720 514.3 694 488.7 693.2 463C692.3 437.3 716.7 411.7 712.3 386C708 360.3 675 334.7 672 308.8C669 283 696 257 696.7 231.2C697.3 205.3 671.7 179.7 677 154C682.3 128.3 718.7 102.7 739.2 77C759.7 51.3 764.3 25.7 766.7 12.8L769 0L960 0L960 12.8C960 25.7 960 51.3 960 77C960 102.7 960 128.3 960 154C960 179.7 960 205.3 960 231.2C960 257 960 283 960 308.8C960 334.7 960 360.3 960 386C960 411.7 960 437.3 960 463C960 488.7 960 514.3 960 527.2L960 540Z" fill="#ff924d"></path><path d="M705 540L722.5 527.2C740 514.3 775 488.7 778.7 463C782.3 437.3 754.7 411.7 741.2 386C727.7 360.3 728.3 334.7 725 308.8C721.7 283 714.3 257 719.2 231.2C724 205.3 741 179.7 740.5 154C740 128.3 722 102.7 727.3 77C732.7 51.3 761.3 25.7 775.7 12.8L790 0L960 0L960 12.8C960 25.7 960 51.3 960 77C960 102.7 960 128.3 960 154C960 179.7 960 205.3 960 231.2C960 257 960 283 960 308.8C960 334.7 960 360.3 960 386C960 411.7 960 437.3 960 463C960 488.7 960 514.3 960 527.2L960 540Z" fill="#ff3a68"></path><path d="M779 540L789 527.2C799 514.3 819 488.7 823.3 463C827.7 437.3 816.3 411.7 807.3 386C798.3 360.3 791.7 334.7 788.2 308.8C784.7 283 784.3 257 786.8 231.2C789.3 205.3 794.7 179.7 801.2 154C807.7 128.3 815.3 102.7 811 77C806.7 51.3 790.3 25.7 782.2 12.8L774 0L960 0L960 12.8C960 25.7 960 51.3 960 77C960 102.7 960 128.3 960 154C960 179.7 960 205.3 960 231.2C960 257 960 283 960 308.8C960 334.7 960 360.3 960 386C960 411.7 960 437.3 960 463C960 488.7 960 514.3 960 527.2L960 540Z" fill="#ca0099"></path><path d="M906 540L907.8 527.2C909.7 514.3 913.3 488.7 906.3 463C899.3 437.3 881.7 411.7 869.3 386C857 360.3 850 334.7 857.5 308.8C865 283 887 257 888.3 231.2C889.7 205.3 870.3 179.7 870.2 154C870 128.3 889 102.7 887.7 77C886.3 51.3 864.7 25.7 853.8 12.8L843 0L960 0L960 12.8C960 25.7 960 51.3 960 77C960 102.7 960 128.3 960 154C960 179.7 960 205.3 960 231.2C960 257 960 283 960 308.8C960 334.7 960 360.3 960 386C960 411.7 960 437.3 960 463C960 488.7 960 514.3 960 527.2L960 540Z" fill="#2a24c7"></path></svg>