<svg width="418" height="353" viewBox="0 0 418 353" fill="none" xmlns="http://www.w3.org/2000/svg">
<path d="M191 8.92C271.52 45.15 198.42 109.72 244.92 144.92C291.42 180.12 417.82 139.43 369.63 230.75C313.05 338 65.17 323.08 11.72 191.51C-41.73 59.94 110.49 -27.31 191 8.92Z" fill="#407BFF"/>
<path opacity="0.9" d="M191 8.92C271.52 45.15 198.42 109.72 244.92 144.92C291.42 180.12 417.82 139.43 369.63 230.75C313.05 338 65.17 323.08 11.72 191.51C-41.73 59.94 110.49 -27.31 191 8.92Z" fill="white"/>
<path d="M210.08 352.56C324.613 352.56 417.46 347.492 417.46 341.24C417.46 334.988 324.613 329.92 210.08 329.92C95.5472 329.92 2.70001 334.988 2.70001 341.24C2.70001 347.492 95.5472 352.56 210.08 352.56Z" fill="#F5F5F5"/>
<path d="M362.33 338.39H231.19C206.69 338.39 205.12 309.54 225.26 295.96C228.925 293.502 232.984 291.689 237.26 290.6C277.13 280.11 333.17 209.6 372.58 239.11C372.618 239.131 372.651 239.158 372.68 239.19C412.1 268.9 384.63 338.39 362.33 338.39Z" fill="#2A24C7"/>
<path opacity="0.2" d="M372.58 239.11C369.27 238.89 365.25 239.82 360.94 243.44C349.73 252.84 366.78 298.11 339.94 316.94C324.94 327.44 260.43 332.08 238.88 319.19C223 309.67 222.79 303.71 225.26 296C228.925 293.542 232.984 291.729 237.26 290.64C277.13 280.11 333.17 209.6 372.58 239.11Z" fill="#FFDB65"/>
<path d="M218.59 262.62C224.44 256.62 257.47 256.3 267.72 256.39C277.97 256.48 291.94 291.46 296.1 297C300.26 302.54 266.1 318.86 249.65 316.78C233.2 314.7 209.39 272 218.59 262.62Z" fill="#FFDB65"/>
<path d="M164.85 27.51L159.72 16.45L157.1 10.79L155.92 12.19L150.71 18.43L143.44 18.08L141.57 17.98L144.43 24.17L148.38 32.69C147.65 32.6866 146.929 32.8472 146.27 33.16C144.39 34.03 143.36 35.83 143.99 37.16C144.62 38.49 146.65 38.89 148.53 38.01C150.41 37.13 151.44 35.34 150.82 34.01L146.26 24.16H153.86L158.59 17.92L162.41 26.17C161.68 26.1666 160.959 26.3272 160.3 26.64C158.42 27.51 157.4 29.31 158.02 30.64C158.64 31.97 160.68 32.37 162.56 31.5C164.44 30.63 165.47 28.82 164.85 27.5V27.51Z" fill="#3D3D3D"/>
<path d="M160.5 123.91L156.9 120.91L155.96 120.13L153.73 130.47C153.348 130.19 152.912 129.993 152.45 129.89C151.12 129.6 149.88 130.14 149.67 131.09C149.46 132.04 150.38 133.03 151.67 133.32C152.96 133.61 154.24 133.07 154.45 132.12L155.94 125.19L159.6 127.95L160.5 123.91Z" fill="#3D3D3D"/>
<path d="M143.64 63.16L143.46 61.16L137.24 58.56L135.62 57.88L135.96 61.8L136.62 69.31L136.94 73.04C136.3 72.809 135.618 72.7203 134.94 72.78C133 72.95 131.52 74.21 131.64 75.6C131.76 76.99 133.43 77.98 135.38 77.81C137.33 77.64 138.79 76.38 138.68 74.99L138.17 69.18L137.8 64.84L143.99 67.09L143.81 65.09L137.59 62.48L137.46 60.94L143.64 63.16Z" fill="#3D3D3D"/>
<path d="M177.33 99.26L179 91.2L179.83 87.07L178.63 87.36L173.31 88.68L169.49 85.59L168.49 84.79L167.93 87.56L166.83 93.05L166.33 95.51C165.937 95.2164 165.482 95.0179 165 94.93C163.63 94.65 162.35 95.22 162.15 96.2C161.95 97.18 162.91 98.2 164.29 98.48C165.67 98.76 166.93 98.19 167.13 97.21L168.58 90.03L172.71 93.03L177.77 91.53L177 95.1L176.5 97.57C176.105 97.2791 175.651 97.0778 175.17 96.98C173.79 96.71 172.52 97.28 172.32 98.26C172.12 99.24 173.08 100.26 174.45 100.54C175.82 100.82 177.1 100.24 177.3 99.26H177.33ZM178.03 90.13L172.7 91.45L168.88 88.35L169.1 87.26L173.24 90.26L178.3 88.75L178.03 90.09V90.13Z" fill="#3D3D3D"/>
<path d="M178.42 341.27H236.62C236.771 341.27 236.92 341.24 237.059 341.182C237.198 341.124 237.324 341.04 237.43 340.933C237.536 340.826 237.619 340.699 237.676 340.559C237.733 340.42 237.761 340.271 237.76 340.12V336.41C237.76 336.108 237.64 335.818 237.426 335.604C237.212 335.39 236.922 335.27 236.62 335.27H181.42V216.45H235.67C235.944 216.451 236.216 216.398 236.469 216.295C236.723 216.191 236.953 216.038 237.147 215.844C237.341 215.651 237.496 215.421 237.601 215.168C237.706 214.915 237.76 214.644 237.76 214.37V210.45H178.42C177.624 210.45 176.861 210.766 176.299 211.329C175.736 211.891 175.42 212.654 175.42 213.45V338.27C175.42 339.066 175.736 339.829 176.299 340.391C176.861 340.954 177.624 341.27 178.42 341.27V341.27Z" fill="#263238"/>
<g opacity="0.3">
<path d="M175.42 213.46V338.27C175.42 339.066 175.736 339.829 176.299 340.391C176.861 340.954 177.624 341.27 178.42 341.27H236.62C236.922 341.27 237.212 341.15 237.426 340.936C237.64 340.722 237.76 340.432 237.76 340.13V336.42C237.76 336.117 237.64 335.826 237.427 335.61C237.213 335.395 236.923 335.273 236.62 335.27H181.42V216.46H235.68C236.233 216.457 236.762 216.236 237.151 215.844C237.541 215.453 237.76 214.923 237.76 214.37V210.46H178.42C177.624 210.46 176.861 210.776 176.299 211.339C175.736 211.901 175.42 212.664 175.42 213.46V213.46Z" fill="white"/>
</g>
<path opacity="0.2" d="M175.42 213.45V245.28C177.42 245.8 179.42 246.28 181.42 246.75V216.45H235.68C236.233 216.447 236.762 216.226 237.151 215.834C237.541 215.443 237.76 214.913 237.76 214.36V210.45H178.42C177.624 210.45 176.861 210.766 176.299 211.329C175.736 211.891 175.42 212.654 175.42 213.45V213.45Z" fill="black"/>
<path d="M72.17 324.56L96 322.48V291.14H104.39V322.47L128.39 324.56C129.408 324.66 130.352 325.135 131.038 325.893C131.724 326.651 132.102 327.638 132.1 328.66V331.84H68.45V328.66C68.4501 327.637 68.8311 326.65 69.5188 325.892C70.2064 325.134 71.1515 324.659 72.17 324.56V324.56Z" fill="#263238"/>
<path opacity="0.1" d="M72.17 324.56L96 322.48V291.14H104.39V322.47L128.39 324.56C129.408 324.66 130.352 325.135 131.038 325.893C131.724 326.651 132.102 327.638 132.1 328.66V331.84H68.45V328.66C68.4501 327.637 68.8311 326.65 69.5188 325.892C70.2064 325.134 71.1515 324.659 72.17 324.56V324.56Z" fill="white"/>
<path d="M124.37 335.78C124.368 336.867 124.689 337.929 125.291 338.834C125.894 339.738 126.751 340.443 127.754 340.86C128.758 341.277 129.863 341.387 130.929 341.175C131.994 340.963 132.974 340.44 133.742 339.672C134.51 338.904 135.033 337.924 135.245 336.859C135.457 335.793 135.347 334.688 134.93 333.684C134.513 332.681 133.808 331.824 132.904 331.221C131.999 330.619 130.937 330.298 129.85 330.3C128.397 330.3 127.003 330.877 125.975 331.905C124.947 332.933 124.37 334.327 124.37 335.78Z" fill="#263238"/>
<path d="M76.18 335.78C76.182 336.866 75.8617 337.929 75.2596 338.833C74.6576 339.737 73.8009 340.442 72.7979 340.859C71.7949 341.276 70.6907 341.386 69.6251 341.176C68.5595 340.965 67.5803 340.443 66.8115 339.676C66.0427 338.908 65.5189 337.93 65.3062 336.865C65.0936 335.799 65.2017 334.695 65.617 333.691C66.0322 332.688 66.7359 331.83 67.6389 331.226C68.5419 330.622 69.6038 330.3 70.69 330.3C72.1443 330.3 73.5392 330.877 74.5685 331.904C75.5978 332.932 76.1774 334.326 76.18 335.78V335.78Z" fill="#263238"/>
<path d="M102.16 297.53H98.31C97.8228 297.53 97.3404 297.434 96.8903 297.248C96.4402 297.061 96.0312 296.788 95.6867 296.443C95.3422 296.099 95.0689 295.69 94.8824 295.24C94.696 294.79 94.6 294.307 94.6 293.82V266.82H105.87V293.82C105.87 294.804 105.479 295.748 104.783 296.443C104.088 297.139 103.144 297.53 102.16 297.53V297.53Z" fill="#263238"/>
<path opacity="0.2" d="M102.16 297.53H98.31C97.8228 297.53 97.3404 297.434 96.8903 297.248C96.4402 297.061 96.0312 296.788 95.6867 296.443C95.3422 296.099 95.0689 295.69 94.8824 295.24C94.696 294.79 94.6 294.307 94.6 293.82V266.82H105.87V293.82C105.87 294.804 105.479 295.748 104.783 296.443C104.088 297.139 103.144 297.53 102.16 297.53V297.53Z" fill="white"/>
<path d="M75.48 204.85C75.48 204.85 78.06 256.67 89.23 265.6H77.29C77.29 265.6 66.64 247.94 65.85 204.85H75.48Z" fill="#263238"/>
<path opacity="0.1" d="M75.48 204.85C75.48 204.85 78.06 256.67 89.23 265.6H77.29C77.29 265.6 66.64 247.94 65.85 204.85H75.48Z" fill="white"/>
<path d="M74.51 261.3H127.43C128.02 261.3 128.604 261.416 129.148 261.642C129.693 261.867 130.188 262.198 130.605 262.615C131.022 263.032 131.353 263.527 131.578 264.072C131.804 264.617 131.92 265.2 131.92 265.79V269.89H70V265.79C70 265.199 70.1168 264.613 70.3437 264.067C70.5706 263.521 70.9031 263.025 71.3222 262.608C71.7412 262.191 72.2385 261.86 72.7856 261.636C73.3327 261.412 73.9187 261.297 74.51 261.3Z" fill="#FF3A68"/>
<path d="M132.47 265.6H69.47C68.4704 265.6 67.66 266.41 67.66 267.41V268.08C67.66 269.08 68.4704 269.89 69.47 269.89H132.47C133.47 269.89 134.28 269.08 134.28 268.08V267.41C134.28 266.41 133.47 265.6 132.47 265.6Z" fill="#263238"/>
<path opacity="0.6" d="M132.47 265.6H69.47C68.4704 265.6 67.66 266.41 67.66 267.41V268.08C67.66 269.08 68.4704 269.89 69.47 269.89H132.47C133.47 269.89 134.28 269.08 134.28 268.08V267.41C134.28 266.41 133.47 265.6 132.47 265.6Z" fill="white"/>
<path d="M63.76 216.19H82.88C88.48 216.19 92.53 211.19 91.88 204.95L91.06 196.66C90.45 190.45 85.41 185.42 79.81 185.42H60.73C55.12 185.42 51.08 190.42 51.73 196.66L52.55 204.95C53.12 211.16 58.15 216.19 63.76 216.19Z" fill="#FF3A68"/>
<path d="M129.74 170.55C135.14 176.84 140.69 183.46 146.74 189.1C148.47 190.58 149.92 192.1 151.97 192.75C157.04 194.19 162.63 194.39 167.97 194.75C173.65 195.02 179.45 195.2 185.19 195.32L185.69 200.94C179.84 202.023 173.934 202.774 168 203.19C163.439 203.567 158.856 203.604 154.29 203.3C150.87 203.1 146.7 202.22 143.77 200.23C134.69 194.16 127.77 186.02 120.87 177.72L129.72 170.55H129.74Z" fill="#FFB9B2"/>
<path d="M145.84 184.77L143.9 186.38L138.9 190.54L135.33 193.54L134 194.62L125.06 189.52L121.06 187.25C121.788 185.142 122.639 183.078 123.61 181.07C125.42 177.35 128.05 173.12 131.01 172.07C131.572 171.864 132.172 171.787 132.767 171.844C133.363 171.901 133.938 172.091 134.45 172.4C140.79 176 145.84 184.77 145.84 184.77Z" fill="#263238"/>
<path opacity="0.2" d="M141.3 198.55C140.75 198.14 140.22 197.73 139.71 197.31C138.17 196.06 136.71 194.79 135.33 193.5L134 194.62L125.06 189.52L127.24 185.2L130.84 178.06C134.182 181.76 136.907 185.974 138.91 190.54C140.038 193.1 140.841 195.791 141.3 198.55Z" fill="black"/>
<path d="M148.69 330.59C148.69 330.59 148.69 330.64 148.69 330.66H148.76C149.414 331.04 150.104 331.355 150.82 331.6C151.345 331.819 151.931 331.84 152.47 331.66C152.649 331.564 152.796 331.418 152.895 331.241C152.994 331.064 153.041 330.863 153.03 330.66C153.046 330.535 153.03 330.407 152.982 330.29C152.935 330.173 152.859 330.069 152.76 329.99C152.006 329.668 151.162 329.625 150.38 329.87C150.998 329.474 151.455 328.871 151.67 328.17C151.686 328.003 151.646 327.835 151.555 327.694C151.464 327.552 151.329 327.445 151.17 327.39C151.037 327.328 150.892 327.295 150.745 327.295C150.598 327.295 150.453 327.328 150.32 327.39C149.27 327.94 148.82 330.3 148.79 330.39H148.65C148.635 330.404 148.624 330.422 148.618 330.441C148.612 330.46 148.61 330.481 148.614 330.501C148.618 330.521 148.627 330.54 148.641 330.555C148.654 330.571 148.671 330.583 148.69 330.59V330.59ZM149.34 330.13L149.14 330.19C149.36 329.41 149.81 328.14 150.44 327.82C150.509 327.78 150.585 327.755 150.665 327.746C150.744 327.738 150.824 327.746 150.9 327.77H150.99C151.25 327.89 151.28 328.04 151.26 328.16C151.18 328.76 150.18 329.69 149.34 330.13ZM149.34 330.57C150.47 330.26 152.03 329.98 152.5 330.35C152.548 330.389 152.586 330.44 152.608 330.498C152.631 330.556 152.639 330.618 152.63 330.68C152.635 330.807 152.606 330.933 152.546 331.046C152.487 331.158 152.398 331.253 152.29 331.32C151.81 331.58 150.73 331.3 149.36 330.57H149.34Z" fill="#407BFF"/>
<path d="M144.03 313.39L139.04 329.38L147.52 330.19L152.06 315.63L144.03 313.39Z" fill="#FFB9B3"/>
<path opacity="0.2" d="M144.03 313.39L141.55 321.31L149.91 322.5L152.06 315.63L144.03 313.39Z" fill="black"/>
<path d="M148.37 329.35L139.23 326.58C139.079 326.529 138.913 326.539 138.769 326.608C138.625 326.677 138.514 326.8 138.46 326.95V326.95L135.82 334.05C135.705 334.431 135.745 334.841 135.933 335.192C136.12 335.543 136.44 335.805 136.82 335.92C140.02 336.84 141.6 337.11 145.63 338.3C148.1 339.04 152.92 340.73 156.46 341.21C160 341.69 160.37 338.21 158.92 337.67C155.47 336.43 151.39 332.72 149.64 330.23C149.33 329.8 148.881 329.49 148.37 329.35V329.35Z" fill="#263238"/>
<path d="M92.85 228.26C94.02 247.26 96.9 257.62 113.97 260.09C131.04 262.56 157.71 260.09 157.71 260.09L141.38 318.49L157.69 324C157.69 324 185 253.4 181.34 245.74C177.68 238.08 126.34 233.01 126.34 233.01L121.67 223.32L92.85 228.26Z" fill="#407BFF"/>
<path opacity="0.4" d="M169.37 292.06C163.48 309 157.69 324 157.69 324L141.38 318.53L157.71 260.13C146.501 261.091 135.244 261.381 124 261C120.49 260.84 117.07 260.56 114 260.11C96.93 257.64 94.05 247.24 92.88 228.28L121.68 223.34L126.35 233.03C126.35 233.03 177.75 238.11 181.35 245.76C183.29 249.87 176.27 272.28 169.37 292.06Z" fill="white"/>
<path opacity="0.2" d="M169.37 292.06C163.48 309 157.69 324 157.69 324L141.38 318.53L157.71 260.13C146.501 261.091 135.244 261.381 124 261L124.75 235.37C124.75 235.37 156.65 235.21 168.63 242.23C171.55 243.93 170.75 268.71 169.37 292.06Z" fill="black"/>
<path d="M77.85 228.26C79.02 247.26 81.9 257.62 98.97 260.09C116.04 262.56 142.71 260.09 142.71 260.09L146.38 322.49L162.69 321.96C162.69 321.96 169.96 251.4 166.34 243.74C162.72 236.08 116.34 235.01 116.34 235.01L111.67 223.32L77.85 228.26Z" fill="#407BFF"/>
<path opacity="0.4" d="M77.85 228.26C79.02 247.26 81.9 257.62 98.97 260.09C116.04 262.56 142.71 260.09 142.71 260.09L146.38 322.49L162.69 321.96C162.69 321.96 169.96 251.4 166.34 243.74C162.72 236.08 116.34 235.01 116.34 235.01L111.67 223.32L77.85 228.26Z" fill="white"/>
<path d="M159.2 332.85C159.2 332.85 159.2 332.85 159.2 332.91H159.27C159.999 333.106 160.746 333.223 161.5 333.26C162.065 333.338 162.639 333.203 163.11 332.88C163.253 332.738 163.354 332.559 163.402 332.363C163.45 332.167 163.442 331.962 163.38 331.77C163.359 331.645 163.307 331.527 163.229 331.427C163.15 331.327 163.047 331.249 162.93 331.2C162.118 331.091 161.294 331.28 160.61 331.73C161.104 331.179 161.385 330.47 161.4 329.73C161.375 329.563 161.292 329.409 161.166 329.296C161.04 329.183 160.879 329.117 160.71 329.11C160.564 329.087 160.415 329.097 160.273 329.138C160.131 329.18 160 329.252 159.89 329.35C159.03 330.16 159.23 332.56 159.24 332.69H159.38H159.24C159.24 332.69 159.1 332.74 159.1 332.75C159.123 332.793 159.157 332.827 159.2 332.85V332.85ZM159.69 332.24L159.52 332.34C159.52 331.53 159.62 330.18 160.14 329.71C160.194 329.653 160.259 329.609 160.332 329.58C160.404 329.55 160.482 329.537 160.56 329.54H160.66C160.94 329.54 161.01 329.72 161.03 329.83C160.883 330.767 160.408 331.621 159.69 332.24ZM159.83 332.65C160.83 332.05 162.27 331.36 162.83 331.59C162.887 331.616 162.937 331.656 162.974 331.707C163.01 331.758 163.033 331.818 163.04 331.88C163.078 332 163.084 332.127 163.058 332.25C163.032 332.373 162.974 332.487 162.89 332.58C162.47 333 161.35 333 159.83 332.65V332.65Z" fill="#407BFF"/>
<path d="M150.09 317.53L149.58 334.27L157.96 332.78L158.42 317.53H150.09Z" fill="#FFB9B3"/>
<path opacity="0.2" d="M150.09 317.53L149.83 325.82L158.21 324.73L158.43 317.53H150.09Z" fill="black"/>
<path d="M158.55 331.73L149.01 331.52C148.93 331.515 148.849 331.525 148.773 331.551C148.697 331.576 148.627 331.617 148.567 331.67C148.506 331.723 148.457 331.787 148.421 331.859C148.386 331.931 148.365 332.01 148.36 332.09L147.73 339.64C147.725 339.836 147.758 340.03 147.828 340.213C147.898 340.396 148.003 340.563 148.138 340.705C148.273 340.848 148.434 340.962 148.613 341.041C148.792 341.121 148.984 341.165 149.18 341.17C152.52 341.17 154.11 341.04 158.31 341.1C160.89 341.15 165.98 341.49 169.52 341C173.06 340.51 172.52 337 170.94 336.93C167.29 336.66 162.36 334.18 160.01 332.25C159.593 331.923 159.08 331.74 158.55 331.73Z" fill="#263238"/>
<path d="M145.38 322.52L162.97 322.97L164.17 315.39L144.86 315.27L145.38 322.52Z" fill="#407BFF"/>
<path opacity="0.2" d="M145.38 322.52L162.97 322.97L164.17 315.39L144.86 315.27L145.38 322.52Z" fill="white"/>
<path d="M134.47 172.39C134.47 172.39 124 200 123.54 228.26H77.85C77.85 228.26 77.85 202.17 85.6 181.64C86.9855 177.87 88.7512 174.252 90.87 170.84C91.8583 169.246 92.9647 167.728 94.18 166.3C100.347 164.523 106.778 163.846 113.18 164.3C122.72 165.28 134.47 172.39 134.47 172.39Z" fill="#263238"/>
<path d="M106.63 165L117.85 173.53L119.57 170.08C119.06 167.5 119.2 166.03 121.08 163.87L115.86 151.34C114.43 156.38 111.27 162.87 106.63 165Z" fill="#FFB9B3"/>
<path opacity="0.2" d="M118 156.43L121.08 163.84C120.409 164.597 119.803 165.41 119.27 166.27C117.36 164.93 115.69 161.27 116.56 158.98C116.876 158.047 117.365 157.182 118 156.43V156.43Z" fill="black"/>
<path d="M136.661 153.153C137.31 149.673 135.521 146.42 132.665 145.888C129.809 145.356 126.968 147.745 126.319 151.225C125.671 154.706 127.46 157.958 130.316 158.491C133.171 159.023 136.012 156.634 136.661 153.153Z" fill="black"/>
<path d="M138 143.27C138.28 146.27 136.55 152.01 133 149.27C129.45 146.53 137.48 138.08 138 143.27Z" fill="#263238"/>
<path d="M116.75 142.72C114.75 149.91 113.22 154.01 115.54 158.82C119.04 166.05 128.88 165.75 132.99 159.28C136.7 153.47 139.34 142.7 133.38 137.58C132.061 136.447 130.476 135.667 128.774 135.313C127.071 134.958 125.306 135.042 123.645 135.556C121.984 136.069 120.48 136.996 119.274 138.249C118.068 139.502 117.2 141.04 116.75 142.72V142.72Z" fill="#FFB9B3"/>
<path d="M113.88 134.4L122.17 134.66L122.03 139.42L121.57 139.12C121.57 139.12 120.51 146.01 116.38 148.07C111.33 143.57 110.27 136.77 113.88 134.4Z" fill="#263238"/>
<path d="M112 147.65C111.983 148.575 112.152 149.493 112.495 150.352C112.839 151.211 113.35 151.992 114 152.65C115.74 154.42 117.86 153.16 118.42 150.88C118.93 148.82 118.64 145.42 116.42 144.51C115.919 144.305 115.375 144.231 114.838 144.293C114.3 144.355 113.787 144.551 113.347 144.865C112.906 145.178 112.551 145.597 112.316 146.084C112.08 146.571 111.972 147.11 112 147.65V147.65Z" fill="#FFB9B3"/>
<path d="M126.8 148.28C126.6 148.85 126.74 149.42 127.12 149.54C127.5 149.66 127.96 149.31 128.12 148.73C128.28 148.15 128.17 147.59 127.8 147.47C127.43 147.35 127 147.7 126.8 148.28Z" fill="#263238"/>
<path d="M133.31 150.45C133.11 151.03 133.25 151.59 133.63 151.72C134.01 151.85 134.47 151.48 134.63 150.91C134.79 150.34 134.68 149.77 134.31 149.64C133.94 149.51 133.5 149.88 133.31 150.45Z" fill="#263238"/>
<path d="M131.14 150.05C131.262 151.981 131.653 153.886 132.3 155.71C131.814 155.842 131.305 155.87 130.807 155.793C130.309 155.715 129.833 155.534 129.41 155.26L131.14 150.05Z" fill="#A02724"/>
<path d="M125.56 156.42C125.8 156.535 126.047 156.636 126.3 156.72C126.322 156.728 126.346 156.731 126.369 156.729C126.393 156.727 126.416 156.72 126.436 156.708C126.457 156.697 126.475 156.682 126.49 156.663C126.504 156.644 126.514 156.623 126.52 156.6C126.528 156.578 126.531 156.555 126.53 156.532C126.528 156.509 126.522 156.487 126.512 156.466C126.502 156.446 126.487 156.428 126.47 156.413C126.452 156.398 126.432 156.387 126.41 156.38C125.692 156.159 125.037 155.773 124.497 155.251C123.956 154.73 123.546 154.089 123.3 153.38C123.299 153.353 123.292 153.327 123.279 153.303C123.266 153.279 123.248 153.259 123.227 153.243C123.205 153.227 123.18 153.216 123.154 153.211C123.127 153.206 123.1 153.207 123.074 153.214C123.048 153.221 123.024 153.233 123.004 153.251C122.983 153.268 122.967 153.29 122.956 153.315C122.945 153.339 122.94 153.366 122.94 153.393C122.941 153.42 122.948 153.446 122.96 153.47C123.167 154.114 123.505 154.708 123.952 155.216C124.4 155.724 124.947 156.133 125.56 156.42V156.42Z" fill="#263238"/>
<path d="M125.51 145.51C125.565 145.542 125.627 145.558 125.69 145.558C125.753 145.558 125.815 145.542 125.87 145.51C126.236 145.248 126.658 145.075 127.102 145.006C127.547 144.936 128.002 144.972 128.43 145.11C128.515 145.137 128.608 145.132 128.69 145.094C128.771 145.057 128.836 144.99 128.871 144.908C128.906 144.825 128.909 144.732 128.879 144.648C128.849 144.563 128.789 144.493 128.71 144.45C128.171 144.267 127.597 144.215 127.034 144.297C126.471 144.378 125.935 144.592 125.47 144.92C125.392 144.975 125.339 145.057 125.32 145.15C125.302 145.243 125.319 145.34 125.37 145.42C125.409 145.461 125.457 145.491 125.51 145.51V145.51Z" fill="#263238"/>
<path d="M136.88 149.16C136.946 149.175 137.014 149.175 137.08 149.16C137.175 149.147 137.261 149.099 137.32 149.024C137.38 148.95 137.409 148.855 137.4 148.76C137.341 148.199 137.149 147.66 136.84 147.189C136.53 146.717 136.112 146.327 135.62 146.05C135.533 146.012 135.435 146.008 135.346 146.039C135.257 146.071 135.183 146.136 135.14 146.22C135.12 146.261 135.107 146.306 135.104 146.352C135.101 146.398 135.107 146.445 135.122 146.488C135.137 146.532 135.16 146.572 135.191 146.607C135.222 146.642 135.259 146.67 135.3 146.69C135.689 146.91 136.018 147.222 136.258 147.599C136.499 147.975 136.644 148.405 136.68 148.85C136.683 148.915 136.704 148.977 136.739 149.032C136.774 149.086 136.822 149.13 136.88 149.16V149.16Z" fill="#263238"/>
<path d="M118.88 140.7C119.35 141.166 119.944 141.486 120.592 141.623C121.239 141.759 121.912 141.706 122.53 141.47C124.67 140.61 125.76 134.82 131.38 138.24C132.033 138.136 132.703 138.223 133.308 138.491C133.913 138.759 134.428 139.196 134.79 139.75C136.16 141.75 134.6 148.36 137.89 147.68C141.18 147 140.69 145.96 140.69 145.96C140.69 145.96 139.75 146.46 139.25 145.96C139.757 145.597 140.138 145.085 140.341 144.496C140.543 143.906 140.557 143.268 140.38 142.67C140.38 142.67 139.53 143.53 139.02 143.31C139.769 140.63 139.675 137.785 138.75 135.16C137.25 130.37 125.75 130.53 125.75 130.53C125.75 130.53 124.5 128.02 119.22 129.3C113.94 130.58 111.11 136.61 111.72 139.38L118.88 140.7Z" fill="#263238"/>
<path d="M120.31 149C119.66 152.48 116.82 154.87 113.96 154.34C111.1 153.81 109.31 150.55 109.96 147.07C110.61 143.59 113.46 141.19 116.31 141.73C119.16 142.27 121 145.51 120.31 149Z" fill="black"/>
<path d="M115.82 143.66C117.92 135.9 121.3 130.4 132.3 131.18L131.65 130.38L125.65 129.3C125.65 129.3 114.72 128.95 112.24 143.66H115.82Z" fill="#263238"/>
<path opacity="0.3" d="M115.82 143.66C117.92 135.9 121.3 130.4 132.3 131.18L131.65 130.38L125.65 129.3C125.65 129.3 114.72 128.95 112.24 143.66H115.82Z" fill="white"/>
<path d="M118.06 148.44C117.51 151.39 115.11 153.44 112.69 152.96C110.27 152.48 108.75 149.75 109.3 146.8C109.85 143.85 112.3 141.8 114.68 142.28C117.06 142.76 118.61 145.49 118.06 148.44Z" fill="#263238"/>
<path opacity="0.4" d="M118.06 148.44C117.51 151.39 115.11 153.44 112.69 152.96C110.27 152.48 108.75 149.75 109.3 146.8C109.85 143.85 112.3 141.8 114.68 142.28C117.06 142.76 118.61 145.49 118.06 148.44Z" fill="white"/>
<path opacity="0.2" d="M158.55 331.73L149.01 331.52C148.93 331.515 148.849 331.525 148.773 331.551C148.697 331.576 148.627 331.617 148.567 331.67C148.506 331.723 148.457 331.787 148.421 331.859C148.386 331.931 148.365 332.01 148.36 332.09L147.73 339.64C147.725 339.836 147.758 340.03 147.828 340.213C147.898 340.396 148.003 340.563 148.138 340.705C148.273 340.848 148.434 340.962 148.613 341.041C148.792 341.121 148.984 341.165 149.18 341.17C152.52 341.17 154.11 341.04 158.31 341.1C160.89 341.15 165.98 341.49 169.52 341C173.06 340.51 172.52 337 170.94 336.93C167.29 336.66 162.36 334.18 160.01 332.25C159.593 331.923 159.08 331.74 158.55 331.73Z" fill="white"/>
<path d="M181.67 195L189.29 195.05L185.16 203.76C185.16 203.76 178.69 202.28 179.16 198.76L181.67 195Z" fill="#FFB9B3"/>
<path d="M194.19 198.93L190.44 205.97L185.16 203.77L189.29 195.06L194.19 198.93Z" fill="#FFB9B3"/>
<path d="M155.94 179.55L140.64 171.79C140.567 171.753 140.502 171.702 140.448 171.639C140.395 171.577 140.355 171.505 140.329 171.426C140.304 171.348 140.295 171.266 140.302 171.184C140.309 171.102 140.332 171.023 140.37 170.95L140.49 170.73C140.563 170.583 140.691 170.471 140.847 170.418C141.003 170.366 141.173 170.377 141.32 170.45L156.62 178.22L157.71 179.54L155.94 179.55Z" fill="#263238"/>
<path d="M139.23 180.11L144.37 174.48L148.06 183.39C148.06 183.39 142.63 187.19 140.3 184.51L139.23 180.11Z" fill="#FFB9B3"/>
<path d="M150.53 173.43L153.24 180.94L148.06 183.39L144.37 174.48L150.53 173.43Z" fill="#FFB9B3"/>
<path opacity="0.2" d="M111.11 192L92.49 194.14C89.4707 190.415 87.1378 186.182 85.6 181.64C86.9855 177.87 88.7512 174.252 90.87 170.84C95.21 170.4 100.53 170.96 104.33 174.97C106.525 177.223 108.254 179.887 109.418 182.809C110.581 185.732 111.156 188.855 111.11 192V192Z" fill="black"/>
<path d="M99.43 171.82C101.79 176.76 104.43 181.93 107.2 186.66C109.48 190.4 111.85 194.4 115.12 196.92C121.3 196.86 134.52 184.27 139.54 179.76L143.86 183.39C137.92 191.67 124.86 208.39 113.45 207.04C104.27 205.38 97.18 192.11 93 184.67C91.6 181.96 90.26 179.34 89 176.45L99.41 171.82H99.43Z" fill="#FFB9B2"/>
<path d="M94.18 166.3C88.04 168.43 85.83 178.55 92.85 192L108.85 184.77C108.85 184.77 104.43 174.6 102.04 170.87C99.65 167.14 94.18 166.3 94.18 166.3Z" fill="#263238"/>
<path d="M203 169.47L190.5 197C190.278 197.41 189.953 197.756 189.557 198.001C189.16 198.247 188.706 198.384 188.24 198.4H143.45C142.55 198.4 142.1 197.77 142.45 197L155 169.47C155.225 169.061 155.553 168.718 155.951 168.475C156.349 168.231 156.804 168.095 157.27 168.08H202C202.92 168.08 203.37 168.71 203 169.47Z" fill="#263238"/>
<path opacity="0.4" d="M203 169.48L190.5 197C190.278 197.41 189.953 197.756 189.557 198.001C189.16 198.247 188.706 198.384 188.24 198.4H143.45C142.55 198.4 142.1 197.77 142.45 197L155 169.48C155.222 169.07 155.547 168.724 155.943 168.479C156.34 168.233 156.794 168.096 157.26 168.08H202C202.92 168.08 203.37 168.71 203 169.48Z" fill="white"/>
<path opacity="0.4" d="M203 169.47L190.5 197C190.278 197.41 189.953 197.756 189.557 198.001C189.16 198.247 188.706 198.384 188.24 198.4H144.45C143.55 198.4 143.1 197.77 143.45 197L156 169.47C156.225 169.061 156.553 168.718 156.951 168.475C157.349 168.231 157.804 168.095 158.27 168.08H202C202.92 168.08 203.37 168.71 203 169.47Z" fill="white"/>
<path opacity="0.4" d="M177.16 183.21C176.647 184.292 175.861 185.22 174.879 185.904C173.896 186.589 172.752 187.004 171.56 187.11C169.44 187.11 168.56 185.37 169.5 183.21C170.015 182.128 170.804 181.2 171.788 180.516C172.771 179.832 173.917 179.416 175.11 179.31C177.22 179.31 178.14 181.06 177.16 183.21Z" fill="white"/>
<path opacity="0.4" d="M154.7 177.7L149.7 188.7C149.529 188.997 149.285 189.244 148.991 189.419C148.696 189.594 148.362 189.691 148.02 189.7H145.75L151.75 176.6H154C154.64 176.66 155 177.13 154.7 177.7Z" fill="black"/>
<path d="M168.51 201.89H153.88C153.581 201.89 153.288 201.81 153.03 201.659C152.773 201.507 152.56 201.29 152.414 201.029C152.269 200.768 152.195 200.474 152.201 200.175C152.208 199.876 152.294 199.584 152.45 199.33L160.16 186.67C160.216 186.584 160.293 186.513 160.384 186.466C160.475 186.419 160.577 186.396 160.68 186.4L161.44 186.45L162.52 186.51C162.609 186.514 162.696 186.538 162.773 186.582C162.85 186.626 162.916 186.687 162.965 186.762C163.014 186.836 163.044 186.921 163.054 187.009C163.063 187.098 163.052 187.187 163.02 187.27L158.76 199.12C158.695 199.307 158.675 199.507 158.702 199.703C158.73 199.899 158.804 200.086 158.919 200.247C159.033 200.409 159.185 200.541 159.361 200.632C159.537 200.722 159.732 200.77 159.93 200.77H167.16C167.315 200.77 167.468 200.806 167.607 200.876C167.746 200.945 167.867 201.046 167.96 201.17L168.51 201.89Z" fill="#263238"/>
<path opacity="0.2" d="M168.51 201.89H154.88C154.581 201.89 154.288 201.81 154.03 201.659C153.773 201.507 153.56 201.29 153.414 201.029C153.269 200.768 153.195 200.474 153.201 200.175C153.208 199.876 153.294 199.584 153.45 199.33L161.16 186.67C161.229 186.57 161.327 186.493 161.44 186.45L162.52 186.51C162.609 186.514 162.696 186.538 162.773 186.582C162.85 186.626 162.916 186.687 162.965 186.762C163.014 186.836 163.044 186.921 163.054 187.009C163.063 187.098 163.052 187.187 163.02 187.27L158.76 199.12C158.695 199.307 158.675 199.507 158.702 199.703C158.73 199.899 158.804 200.086 158.919 200.247C159.033 200.409 159.185 200.541 159.361 200.632C159.537 200.722 159.732 200.77 159.93 200.77H167.16C167.315 200.77 167.468 200.806 167.607 200.876C167.746 200.945 167.867 201.046 167.96 201.17L168.51 201.89Z" fill="white"/>
<path d="M190.51 201.89H175.88C175.581 201.89 175.288 201.81 175.03 201.659C174.773 201.507 174.56 201.29 174.414 201.029C174.269 200.768 174.195 200.474 174.201 200.175C174.208 199.876 174.294 199.584 174.45 199.33L182.16 186.67C182.216 186.584 182.293 186.513 182.384 186.466C182.475 186.419 182.577 186.396 182.68 186.4L183.44 186.45L184.52 186.51C184.609 186.514 184.696 186.538 184.773 186.582C184.85 186.626 184.916 186.687 184.965 186.762C185.014 186.836 185.044 186.921 185.054 187.009C185.063 187.098 185.052 187.187 185.02 187.27L180.76 199.12C180.695 199.307 180.675 199.507 180.702 199.703C180.73 199.899 180.804 200.086 180.919 200.247C181.033 200.409 181.185 200.541 181.361 200.632C181.537 200.722 181.732 200.77 181.93 200.77H189.16C189.315 200.77 189.468 200.806 189.607 200.876C189.746 200.945 189.867 201.046 189.96 201.17L190.51 201.89Z" fill="#263238"/>
<path opacity="0.2" d="M190.51 201.89H176.88C176.581 201.89 176.288 201.81 176.03 201.659C175.773 201.507 175.56 201.29 175.414 201.029C175.269 200.768 175.195 200.474 175.201 200.175C175.208 199.876 175.294 199.584 175.45 199.33L183.16 186.67C183.229 186.57 183.327 186.493 183.44 186.45L184.52 186.51C184.609 186.514 184.696 186.538 184.773 186.582C184.85 186.626 184.916 186.687 184.965 186.762C185.014 186.836 185.044 186.921 185.054 187.009C185.063 187.098 185.052 187.187 185.02 187.27L180.76 199.12C180.695 199.307 180.675 199.507 180.702 199.703C180.73 199.899 180.804 200.086 180.919 200.247C181.033 200.409 181.185 200.541 181.361 200.632C181.537 200.722 181.732 200.77 181.93 200.77H189.16C189.315 200.77 189.468 200.806 189.607 200.876C189.746 200.945 189.867 201.046 189.96 201.17L190.51 201.89Z" fill="white"/>
<path d="M103.36 341.27H161.56C161.865 341.27 162.158 341.149 162.373 340.933C162.589 340.717 162.71 340.425 162.71 340.12V336.41C162.707 336.107 162.585 335.817 162.37 335.603C162.154 335.39 161.863 335.27 161.56 335.27H106.36V216.45H160.62C161.173 216.45 161.703 216.231 162.094 215.841C162.486 215.452 162.707 214.923 162.71 214.37V210.45H103.36C102.564 210.45 101.801 210.766 101.239 211.329C100.676 211.891 100.36 212.654 100.36 213.45V338.27C100.36 339.066 100.676 339.829 101.239 340.391C101.801 340.954 102.564 341.27 103.36 341.27Z" fill="#263238"/>
<g opacity="0.4">
<path d="M103.36 341.27H161.56C161.865 341.27 162.158 341.149 162.373 340.933C162.589 340.717 162.71 340.425 162.71 340.12V336.41C162.707 336.107 162.585 335.817 162.37 335.603C162.154 335.39 161.863 335.27 161.56 335.27H106.36V216.45H160.62C161.173 216.45 161.703 216.231 162.094 215.841C162.486 215.452 162.707 214.923 162.71 214.37V210.45H103.36C102.564 210.45 101.801 210.766 101.239 211.329C100.676 211.891 100.36 212.654 100.36 213.45V338.27C100.36 339.066 100.676 339.829 101.239 340.391C101.801 340.954 102.564 341.27 103.36 341.27Z" fill="white"/>
</g>
<path d="M249.33 211.45L95.91 211.45C95.3955 211.45 94.902 211.246 94.5382 210.882C94.1744 210.518 93.97 210.025 93.97 209.51V204.79L251.24 204.79V209.52C251.237 210.028 251.036 210.514 250.679 210.875C250.322 211.236 249.838 211.442 249.33 211.45Z" fill="#CDCCDD"/>
<path opacity="0.2" d="M93.97 208.11L251.27 208.11V204.78L93.97 204.78V208.11Z" fill="black"/>
<path d="M90.67 205.64H254.57C255.067 205.64 255.544 205.443 255.896 205.093C256.248 204.742 256.447 204.267 256.45 203.77C256.45 203.271 256.252 202.793 255.899 202.441C255.547 202.088 255.069 201.89 254.57 201.89H90.67C90.1714 201.89 89.6932 202.088 89.3407 202.441C88.9881 202.793 88.79 203.271 88.79 203.77C88.7927 204.267 88.9919 204.742 89.3442 205.093C89.6965 205.443 90.1731 205.64 90.67 205.64Z" fill="white"/>
</svg>
